# xmcd CD database file
#
# Track frame offsets:
#	150
#	37800
#	59025
#	87150
#	105000
#	129300
#	159000
#	186375
#
# Disc length: 2869 seconds
#
# Revision: 0
# Processed by: cddbd v1.5.1PL2 Copyright (c) Steve Scherf et al.
# Submitted via: CDex 1.51
#
DISCID=560b3308
DTITLE=Captain Hook - Hooked Up
DYEAR=2005
DGENRE=Jazz
TTITLE0=How Ya Feeling?
TTITLE1=Au Petit Balcon
TTITLE2=Concept X
TTITLE3=Go Slow
TTITLE4=Big Time
TTITLE5=Soma
TTITLE6=Road Movie
TTITLE7=Rooftop
EXTD=YEAR: 2005
EXTT0=
EXTT1=
EXTT2=
EXTT3=
EXTT4=
EXTT5=
EXTT6=
EXTT7=
PLAYORDER=
